<?xml version="1.0" encoding="us-ascii" standalone="no"?><svg xmlns="http://www.w3.org/2000/svg" xmlns:xlink="http://www.w3.org/1999/xlink" contentStyleType="text/css" height="387px" preserveAspectRatio="none" style="width:673px;height:387px;background:#FFFFFF;" version="1.1" viewBox="0 0 673 387" width="673px" zoomAndPan="magnify"><defs/><g><rect fill="#FFFFFF" height="22.9395" style="stroke:#000000;stroke-width:1.0;" width="10" x="70.5" y="63.8789"/><rect fill="#FFFFFF" height="55.9395" style="stroke:#000000;stroke-width:1.0;" width="10" x="70.5" y="117.7578"/><rect fill="#FFFFFF" height="34" style="stroke:#000000;stroke-width:1.0;" width="10" x="70.5" y="337.875"/><rect fill="#FFFFFF" height="30.9395" style="stroke:#000000;stroke-width:1.0;" width="10" x="193" y="86.8184"/><rect fill="#FFFFFF" height="164.1777" style="stroke:#000000;stroke-width:1.0;" width="10" x="312.5" y="173.6973"/><line style="stroke:#000000;stroke-width:1.0;" x1="75" x2="75" y1="53.8789" y2="380.875"/><line style="stroke:#000000;stroke-width:1.0;" x1="198" x2="198" y1="53.8789" y2="380.875"/><line style="stroke:#000000;stroke-width:1.0;" x1="317" x2="317" y1="53.8789" y2="380.875"/><line style="stroke:#000000;stroke-width:1.0;" x1="458" x2="458" y1="53.8789" y2="380.875"/><line style="stroke:#000000;stroke-width:1.0;" x1="607" x2="607" y1="53.8789" y2="380.875"/><rect fill="#FFFFFF" height="47.8789" style="stroke:#000000;stroke-width:1.0;" width="111" x="20" y="5"/><text fill="#000000" font-family="Inter" font-size="14" lengthAdjust="spacing" textLength="97" x="27" y="25.5625">Main controller</text><text fill="#000000" font-family="Inter" font-size="14" lengthAdjust="spacing" textLength="45" x="53" y="42.502">(0x00)</text><rect fill="#FFFFFF" height="47.8789" style="stroke:#000000;stroke-width:1.0;" width="74" x="161" y="5"/><text fill="#000000" font-family="Inter" font-size="14" lengthAdjust="spacing" textLength="60" x="168" y="25.5625">Vault PM</text><text fill="#000000" font-family="Inter" font-size="14" lengthAdjust="spacing" textLength="45" x="175.5" y="42.502">(0x08)</text><rect fill="#FFFFFF" height="47.8789" style="stroke:#000000;stroke-width:1.0;" width="105" x="265" y="5"/><text fill="#000000" font-family="Inter" font-size="14" lengthAdjust="spacing" textLength="91" x="272" y="25.5625">NeoTrellis PM</text><text fill="#000000" font-family="Inter" font-size="14" lengthAdjust="spacing" textLength="45" x="295" y="42.502">(0x09)</text><rect fill="#FFFFFF" height="47.8789" style="stroke:#000000;stroke-width:1.0;" width="117" x="400" y="5"/><text fill="#000000" font-family="Inter" font-size="14" lengthAdjust="spacing" textLength="103" x="407" y="25.5625">NeoTrellis unit 1</text><text fill="#000000" font-family="Inter" font-size="14" lengthAdjust="spacing" textLength="44" x="436.5" y="42.502">(0x2e)</text><rect fill="#FFFFFF" height="47.8789" style="stroke:#000000;stroke-width:1.0;" width="120" x="547" y="5"/><text fill="#000000" font-family="Inter" font-size="14" lengthAdjust="spacing" textLength="106" x="554" y="25.5625">NeoTrellis unit 2</text><text fill="#000000" font-family="Inter" font-size="14" lengthAdjust="spacing" textLength="41" x="586.5" y="42.502">(0x2f)</text><rect fill="#FFFFFF" height="22.9395" style="stroke:#000000;stroke-width:1.0;" width="10" x="70.5" y="63.8789"/><rect fill="#FFFFFF" height="55.9395" style="stroke:#000000;stroke-width:1.0;" width="10" x="70.5" y="117.7578"/><rect fill="#FFFFFF" height="34" style="stroke:#000000;stroke-width:1.0;" width="10" x="70.5" y="337.875"/><rect fill="#FFFFFF" height="30.9395" style="stroke:#000000;stroke-width:1.0;" width="10" x="193" y="86.8184"/><rect fill="#FFFFFF" height="164.1777" style="stroke:#000000;stroke-width:1.0;" width="10" x="312.5" y="173.6973"/><polygon fill="#000000" points="181,82.8184,191,86.8184,181,90.8184,185,86.8184" style="stroke:#000000;stroke-width:1.0;"/><line style="stroke:#000000;stroke-width:1.0;" x1="75.5" x2="187" y1="86.8184" y2="86.8184"/><text fill="#000000" font-family="Inter" font-size="14" lengthAdjust="spacing" textLength="34" x="82.5" y="81.4414">SEX?</text><polygon fill="#000000" points="91.5,113.7578,81.5,117.7578,91.5,121.7578,87.5,117.7578" style="stroke:#000000;stroke-width:1.0;"/><line style="stroke:#000000;stroke-width:1.0;" x1="85.5" x2="197" y1="117.7578" y2="117.7578"/><text fill="#000000" font-family="Inter" font-size="14" lengthAdjust="spacing" textLength="27" x="97.5" y="112.3809">SEX</text><polygon fill="#000000" points="300.5,169.6973,310.5,173.6973,300.5,177.6973,304.5,173.6973" style="stroke:#000000;stroke-width:1.0;"/><line style="stroke:#000000;stroke-width:1.0;" x1="75.5" x2="306.5" y1="173.6973" y2="173.6973"/><text fill="#000000" font-family="Inter" font-size="14" lengthAdjust="spacing" textLength="34" x="82.5" y="168.3203">SEX?</text><polygon fill="#000000" points="446.5,203.0068,456.5,207.0068,446.5,211.0068,450.5,207.0068" style="stroke:#000000;stroke-width:1.0;"/><line style="stroke:#000000;stroke-width:1.0;" x1="322.5" x2="452.5" y1="207.0068" y2="207.0068"/><text fill="#000000" font-family="Inter" font-size="14" lengthAdjust="spacing" textLength="4" x="329.5" y="201.6299">I</text><text fill="#000000" font-family="Inter" font-size="11" lengthAdjust="spacing" textLength="7" x="333.5" y="196.3535">2</text><text fill="#000000" font-family="Inter" font-size="14" lengthAdjust="spacing" textLength="10" x="340.5" y="201.6299">C</text><text fill="#000000" font-family="Inter" font-size="14" lengthAdjust="spacing" textLength="4" x="350.5" y="201.6299">&#160;</text><text fill="#000000" font-family="Inter" font-size="14" lengthAdjust="spacing" textLength="32" x="354.5" y="201.6299">write</text><polygon fill="#000000" points="333.5,236.3164,323.5,240.3164,333.5,244.3164,329.5,240.3164" style="stroke:#000000;stroke-width:1.0;"/><line style="stroke:#000000;stroke-width:1.0;" x1="327.5" x2="457.5" y1="240.3164" y2="240.3164"/><text fill="#000000" font-family="Inter" font-size="14" lengthAdjust="spacing" textLength="4" x="339.5" y="234.9395">I</text><text fill="#000000" font-family="Inter" font-size="11" lengthAdjust="spacing" textLength="7" x="343.5" y="229.6631">2</text><text fill="#000000" font-family="Inter" font-size="14" lengthAdjust="spacing" textLength="10" x="350.5" y="234.9395">C</text><text fill="#000000" font-family="Inter" font-size="14" lengthAdjust="spacing" textLength="4" x="360.5" y="234.9395">&#160;</text><text fill="#000000" font-family="Inter" font-size="14" lengthAdjust="spacing" textLength="30" x="364.5" y="234.9395">read</text><polygon fill="#000000" points="595,269.626,605,273.626,595,277.626,599,273.626" style="stroke:#000000;stroke-width:1.0;"/><line style="stroke:#000000;stroke-width:1.0;" x1="322.5" x2="601" y1="273.626" y2="273.626"/><text fill="#000000" font-family="Inter" font-size="14" lengthAdjust="spacing" textLength="4" x="329.5" y="268.249">I</text><text fill="#000000" font-family="Inter" font-size="11" lengthAdjust="spacing" textLength="7" x="333.5" y="262.9727">2</text><text fill="#000000" font-family="Inter" font-size="14" lengthAdjust="spacing" textLength="10" x="340.5" y="268.249">C</text><text fill="#000000" font-family="Inter" font-size="14" lengthAdjust="spacing" textLength="4" x="350.5" y="268.249">&#160;</text><text fill="#000000" font-family="Inter" font-size="14" lengthAdjust="spacing" textLength="32" x="354.5" y="268.249">write</text><polygon fill="#000000" points="333.5,302.9355,323.5,306.9355,333.5,310.9355,329.5,306.9355" style="stroke:#000000;stroke-width:1.0;"/><line style="stroke:#000000;stroke-width:1.0;" x1="327.5" x2="606" y1="306.9355" y2="306.9355"/><text fill="#000000" font-family="Inter" font-size="14" lengthAdjust="spacing" textLength="4" x="339.5" y="301.5586">I</text><text fill="#000000" font-family="Inter" font-size="11" lengthAdjust="spacing" textLength="7" x="343.5" y="296.2822">2</text><text fill="#000000" font-family="Inter" font-size="14" lengthAdjust="spacing" textLength="10" x="350.5" y="301.5586">C</text><text fill="#000000" font-family="Inter" font-size="14" lengthAdjust="spacing" textLength="4" x="360.5" y="301.5586">&#160;</text><text fill="#000000" font-family="Inter" font-size="14" lengthAdjust="spacing" textLength="30" x="364.5" y="301.5586">read</text><polygon fill="#000000" points="91.5,333.875,81.5,337.875,91.5,341.875,87.5,337.875" style="stroke:#000000;stroke-width:1.0;"/><line style="stroke:#000000;stroke-width:1.0;" x1="85.5" x2="316.5" y1="337.875" y2="337.875"/><text fill="#000000" font-family="Inter" font-size="14" lengthAdjust="spacing" textLength="27" x="97.5" y="332.498">SEX</text><!--SRC=[XSunQm9140NWVd_5n4gHqtEhH4GBiR0m2159aMRk775WR-_OczKKz-FDkdX44hNPXNdVW_V2DZT-Ho07AcZ0bI-CKXKwuPmhj0AT5RA5lBJYIcF8VTbk-fsclGvW3SLFTgktw8t0UXNPQsHuQzwft3WoXkiMlaMOtONUii3eWZL5RAaSFVOw-dthjLAO2nzHA6uF3oHJG4YIVdyC7ulFcS9mYSdrg9gcQN7s6sVX4gQCOJcfVJNLas7uvd1oBAH2T2dzoHtXhgth-tNzhFxFr3C0]--></g></svg>